{"title":"Intruder 1989 DVDRip Xvid LKRG","uid":10808356,"size":743608004,"categoryP":"video","categoryS":"movies","magnet":"?xt=urn:btih:f27798a7905ecccc5b5c8e19c8b1e4b6f65fab26&amp;dn=Intruder+1989+DVDRip+Xvid+LKRG&amp;tr=udp%3A%2F%2Ftracker.openbittorrent.com%3A80&amp;tr=udp%3A%2F%2Fopen.demonii.com%3A1337&amp;tr=udp%3A%2F%2Ftracker.coppersurfer.tk%3A6969&amp;tr=udp%3A%2F%2Fexodus.desync.com%3A6969","seeders":0,"leechers":1,"uploader":".BONE.","files":2,"time":1408399930,"description":"\nPLOT\nThe overnight stock crew of a local supermarket find themselves being stalked and slashed by a mysterious maniac.\n\nRuntime ..........: 1h 27mn\nFile Size ........: 709 MB\nResolution .......: 720 x 400 &lt;a href=&quot;\nhttp://www.imdb.com/title/tt0095379/&quot; rel=&quot;nofollow&quot; target=&quot;_NEW&quot;&gt;\nhttp://www.imdb.com/title/tt0095379/&lt;/a&gt;\nGenre ............: Horror,Thriller\nLanguage .........: English\nSubtitles ........: None\nComplete name : Intruder 1989 DVDRip Xvid LKRGIntruder_LKRG.avi\nFormat : AVI\nFormat/Info : Audio Video Interleave\nFile size : 709 MiB\nDuration : 1h 27mn\nOverall bit rate : 1 132 Kbps\nWriting application : VirtualDubMod 1.5.10.2 (build 2540/release)\nWriting library : VirtualDubMod build 2540/release\nVideo\nID : 0\nFormat : MPEG-4 Visual\nFormat profile : Advanced Simple@L5\nFormat settings, BVOP : 2\nFormat settings, QPel : No\nFormat settings, GMC : No warppoints\nFormat settings, Matrix : Default (H.263)\nMuxing mode : Packed bitstream\nCodec ID : XVID\nCodec ID/Hint : XviD\nDuration : 1h 27mn\nBit rate : 898 Kbps\nWidth : 720 pixels\nHeight : 400 pixels\nDisplay aspect ratio : 16:9\nFrame rate : 23.976 fps\nColor space : YUV\nChroma subsampling : 4:2:0\nBit depth : 8 bits\nScan type : Progressive\nCompression mode : Lossy\nBits/(Pixel*Frame) : 0.130\nStream size : 563 MiB (79%)\nWriting library : XviD 1.2.1 (UTC 2008-12-04)\nAudio\nID : 1\nFormat : AC-3\nFormat/Info : Audio Coding 3\nMode extension : CM (complete main)\nFormat settings, Endianness : Big\nCodec ID : 2000\nDuration : 1h 27mn\nBit rate mode : Constant\nBit rate : 224 Kbps\nChannel(s) : 2 channels\nChannel positions : Front: L R\nSampling rate : 48.0 KHz\nBit depth : 16 bits\nCompression mode : Lossy\nStream size : 140 MiB (20%)\nAlignment : Split accross interleaves\nInterleave, duration : 42 ms (1.00 video frame)\nInterleave, preload duration : 500 ms","torrent":{"xt":"urn:btih:f27798a7905ecccc5b5c8e19c8b1e4b6f65fab26","amp;dn":"Intruder+1989+DVDRip+Xvid+LKRG","amp;tr":["udp%3A%2F%2Ftracker.openbittorrent.com%3A80","udp%3A%2F%2Fopen.demonii.com%3A1337","udp%3A%2F%2Ftracker.coppersurfer.tk%3A6969","udp%3A%2F%2Fexodus.desync.com%3A6969"],"infoHash":"f27798a7905ecccc5b5c8e19c8b1e4b6f65fab26","infoHashBuffer":{"type":"Buffer","data":[242,119,152,167,144,94,204,204,91,92,142,25,200,177,228,182,246,95,171,38]},"announce":[],"urlList":[]}}